<?xml version="1.0" standalone="no"?>
<!DOCTYPE svg PUBLIC "-//W3C//DTD SVG 20010904//EN"
 "http://www.w3.org/TR/2001/REC-SVG-20010904/DTD/svg10.dtd">
<svg version="1.0" xmlns="http://www.w3.org/2000/svg"
 width="98.000000pt" height="17.000000pt" viewBox="0 0 98.000000 17.000000"
 preserveAspectRatio="xMidYMid meet">
<metadata>
Created by potrace 1.16, written by Peter Selinger 2001-2019
</metadata>
<g transform="translate(0.000000,17.000000) scale(0.100000,-0.100000)"
fill="#000000" stroke="none">
<path d="M5 95 l0 -54 48 1 c44 0 47 2 41 21 -7 25 -7 25 -4 52 2 11 6 2 9
-19 11 -73 73 -75 79 -2 2 20 8 36 14 36 7 0 9 -17 6 -45 l-6 -45 49 0 c27 0
49 2 49 5 0 4 -7 20 -16 37 -12 23 -13 33 -4 42 16 15 42 -21 38 -54 -3 -24
-1 -25 62 -27 36 -1 70 0 77 2 15 5 -20 100 -38 100 -6 0 -19 -19 -28 -42 -8
-24 -19 -43 -23 -43 -12 0 -9 22 7 50 8 14 14 28 15 32 0 4 -84 7 -187 7
l-188 -1 0 -53z"/>
<path d="M495 95 l0 -54 52 0 c58 0 84 19 66 47 -11 19 -7 42 9 42 7 0 9 -17
6 -45 l-5 -45 145 3 145 2 0 50 c0 44 -3 50 -22 53 -15 2 -24 -4 -30 -20 l-8
-23 -7 23 c-5 14 -15 22 -30 22 -22 0 -23 -3 -20 -47 5 -50 -3 -44 -26 20 -13
38 -29 31 -50 -23 -11 -27 -19 -38 -23 -29 -5 12 -7 12 -17 -1 -9 -12 -11 -5
-7 32 l4 46 -91 0 -91 0 0 -53z"/>
</g>
</svg>
